<svg width="220" height="64" viewBox="0 0 220 64" fill="none" xmlns="http://www.w3.org/2000/svg">
  <defs>
    <linearGradient id="globe" x1="13" y1="8" x2="41" y2="36" gradientUnits="userSpaceOnUse">
      <stop stop-color="#0f7b3e"/>
      <stop offset="1" stop-color="#8ccfc0"/>
    </linearGradient>
  </defs>
  <circle cx="28" cy="24" r="16" fill="url(#globe)"/>
  <path d="M15 14c3-7 20-9 27 2" stroke="#e97824" stroke-width="2.2" stroke-linecap="round"/>
  <path d="M40 33c-5 6-18 6-23 0" stroke="#e97824" stroke-width="2.2" stroke-linecap="round"/>
  <path d="M27 38c8-7 16 6 8 12-10 7-23-5-10-14" stroke="#e97824" stroke-width="3.8" stroke-linecap="round" fill="none"/>
  <text x="53" y="34" font-family="Inter, Arial, sans-serif" font-size="30" font-weight="700" fill="#0f7b3e">sat</text>
  <text x="100" y="38" font-family="Inter, Arial, sans-serif" font-size="35" font-weight="500" fill="#e97824">g</text>
  <text x="124" y="34" font-family="Inter, Arial, sans-serif" font-size="30" font-weight="700" fill="#0f7b3e">uru</text>
  <text x="54" y="54" font-family="Inter, Arial, sans-serif" font-size="10" letter-spacing="2.8" fill="#334155">TRAVEL</text>
<svg width="340" height="120" viewBox="0 0 340 120" fill="none" xmlns="http://www.w3.org/2000/svg">
  <defs>
    <linearGradient id="o" x1="145" y1="8" x2="195" y2="58" gradientUnits="userSpaceOnUse">
      <stop stop-color="#0f7b3e"/>
      <stop offset="1" stop-color="#8ecfc1"/>
    </linearGradient>
  </defs>
  <circle cx="170" cy="34" r="24" fill="url(#o)"/>
  <path d="M150 20c8-14 42-17 52 3" stroke="#e97824" stroke-width="3" stroke-linecap="round"/>
  <path d="M192 53c-10 10-32 9-43 0" stroke="#e97824" stroke-width="3" stroke-linecap="round"/>
  <path d="M112 75c5-16 28-16 33 0M145 75c5-16 28-16 33 0M178 75c5-16 28-16 33 0" stroke="#0f7b3e" stroke-width="8" stroke-linecap="round"/>
  <text x="44" y="79" font-family="Inter, Arial, sans-serif" font-size="58" font-weight="700" fill="#0f7b3e">sat</text>
  <text x="176" y="88" font-family="Inter, Arial, sans-serif" font-size="72" font-weight="500" fill="#e97824">g</text>
  <text x="220" y="79" font-family="Inter, Arial, sans-serif" font-size="58" font-weight="700" fill="#0f7b3e">uru</text>
</svg>
